<svg width="180" height="160" viewBox="0 0 180 160" fill="none" xmlns="http://www.w3.org/2000/svg">
  <ellipse cx="90" cy="139" rx="46" ry="9" fill="#E2E8F0" opacity="0.56"/>
  <g id="celebrate-blob">
    <path d="M48 83C48 50 67 29 95 29C124 29 141 50 141 82C141 112 122 130 92 130C64 130 48 112 48 83Z" fill="url(#body)"/>
    <circle cx="79" cy="75" rx="11" ry="13" fill="white"/>
    <circle cx="107" cy="75" rx="11" ry="13" fill="white"/>
    <circle cx="83" cy="79" r="5.2" fill="#111827"/>
    <circle cx="103" cy="79" r="5.2" fill="#111827"/>
    <path d="M79 99C87 106 99 106 108 99" stroke="#312E81" stroke-width="5" stroke-linecap="round"/>
    <path d="M58 63C48 58 42 51 39 42" stroke="#A78BFA" stroke-width="6" stroke-linecap="round"/>
    <path d="M132 63C143 58 150 51 153 42" stroke="#60A5FA" stroke-width="6" stroke-linecap="round"/>
  </g>
  <defs>
    <linearGradient id="body" x1="52" y1="31" x2="132" y2="128" gradientUnits="userSpaceOnUse">
      <stop stop-color="#F0ABFC"/>
      <stop offset="0.52" stop-color="#A78BFA"/>
      <stop offset="1" stop-color="#60A5FA"/>
    </linearGradient>
  </defs>
</svg>
